<?xml version="1.0" standalone="no"?><!DOCTYPE svg PUBLIC "-//W3C//DTD SVG 1.1//EN" "http://www.w3.org/Graphics/SVG/1.1/DTD/svg11.dtd"><svg t="1726045103553" class="icon" viewBox="0 0 1024 1024" version="1.1" xmlns="http://www.w3.org/2000/svg" p-id="16464" xmlns:xlink="http://www.w3.org/1999/xlink" width="200" height="200"><path d="M827.580563 0H193.800512C86.424552 0 0 86.424552 0 193.800512v633.780051c0 104.757033 86.424552 193.800512 193.800512 193.800511h261.892583c20.951407 0 36.664962-15.713555 36.664961-36.664961s-15.713555-36.664962-36.664961-36.664962h-261.892583c-65.473146 0-120.470588-52.378517-120.470589-120.470588V193.800512c0-65.473146 52.378517-117.851662 120.470589-117.851663h633.780051c65.473146 0 120.470588 52.378517 120.470588 117.851663v463.549872c-10.475703-2.618926-23.570332-5.237852-36.664962-5.237852h-81.186701c-31.42711 0-60.235294 7.856777-83.805626 20.951407l-23.570333-26.189259v-112.61381c0-91.662404-65.473146-172.849105-154.516624-199.038364v-23.570332c0-28.808184-20.951407-49.759591-49.75959-49.759591H497.595908c-26.189258 0-49.759591 23.570332-49.759591 49.759591v23.570332c-86.424552 26.189258-154.516624 107.375959-154.516624 199.038364v112.61381l-52.378517 62.85422c-5.237852 5.237852-5.237852 13.094629-2.618925 18.332481 2.618926 5.237852 7.856777 10.475703 15.713555 10.475703H680.920716c-13.094629 26.189258-23.570332 54.997442-23.570332 83.805627v107.375959c0 52.378517 41.902813 94.28133 94.28133 94.28133h75.948849c107.375959 0 193.800512-86.424552 193.800511-193.800512V193.800512C1021.381074 86.424552 932.337596 0 827.580563 0zM500.214834 293.319693h20.951406c7.856777 0 13.094629 7.856777 13.09463 15.713555v15.713555c-7.856777 0-15.713555-2.618926-23.570333-2.618926s-15.713555 0-23.570332 2.618926v-15.713555c0-7.856777 5.237852-15.713555 13.094629-15.713555z m-204.276215 405.933504l31.42711-36.664962c2.618926-2.618926 5.237852-7.856777 5.237852-10.475703v-120.470588c0-94.28133 81.186701-172.849105 178.086956-172.849105 96.900256 0 178.086957 78.567775 178.086957 172.849105v120.470588c0 5.237852 2.618926 7.856777 5.237851 10.475703l23.570333 28.808184-7.856778 7.856778H295.938619z m649.493606 128.327366c0 65.473146-52.378517 120.470588-120.470588 120.470588h-75.948849c-10.475703 0-18.332481-7.856777-18.332481-18.332481v-107.375959c0-52.378517 44.521739-96.900256 96.900256-96.900256h81.1867c20.951407 0 36.664962 15.713555 36.664962 36.664962v65.473146z" fill="#d81e06" p-id="16465"></path><path d="M565.68798 756.869565c-10.475703 0-18.332481 7.856777-18.332481 18.332481 0 10.475703-15.713555 23.570332-39.283888 23.570333s-39.283887-13.094629-39.283887-23.570333-7.856777-18.332481-18.332481-18.332481c-10.475703 0-18.332481 7.856777-18.332481 18.332481 0 31.42711 31.42711 57.616368 73.329923 57.616368 41.902813 0 73.329923-26.189258 73.329924-57.616368 5.237852-10.475703-2.618926-18.332481-13.094629-18.332481zM259.273657 361.411765l-65.473145-65.473146c-10.475703-10.475703-26.189258-10.475703-34.046036 0-10.475703 10.475703-10.475703 26.189258 0 34.046036l65.473145 65.473146c5.237852 5.237852 10.475703 7.856777 18.332481 7.856777s13.094629-2.618926 18.332481-7.856777c7.856777-7.856777 7.856777-23.570332-2.618926-34.046036zM534.26087 206.895141V112.613811c0-13.094629-10.475703-23.570332-23.570333-23.570333s-23.570332 10.475703-23.570332 23.570333V209.514066c0 13.094629 10.475703 23.570332 23.570332 23.570333s23.570332-10.475703 23.570333-26.189258zM775.202046 395.457801l75.948849-75.94885c10.475703-10.475703 10.475703-26.189258 0-34.046035-10.475703-10.475703-26.189258-10.475703-34.046036 0l-75.948849 75.948849c-10.475703 10.475703-10.475703 26.189258 0 34.046036 5.237852 5.237852 10.475703 7.856777 18.332481 7.856777s10.475703-2.618926 15.713555-7.856777z" fill="#d81e06" p-id="16466"></path></svg>