<?xml version="1.0" standalone="no"?><!DOCTYPE svg PUBLIC "-//W3C//DTD SVG 1.1//EN" "http://www.w3.org/Graphics/SVG/1.1/DTD/svg11.dtd"><svg t="1726037121398" class="icon" viewBox="0 0 1024 1024" version="1.1" xmlns="http://www.w3.org/2000/svg" p-id="20537" xmlns:xlink="http://www.w3.org/1999/xlink" width="200" height="200"><path d="M890.88 272.827733v-174.08c0-40.413867-32.768-73.147733-73.147733-73.147733H206.267733C165.853867 25.6 133.12 58.368 133.12 98.747733v174.08h-13.653333a68.266667 68.266667 0 0 0-68.266667 68.266667V930.133333a68.266667 68.266667 0 0 0 68.266667 68.266667h81.442133a68.266667 68.266667 0 0 0 68.266667-68.266667V341.0944a68.266667 68.266667 0 0 0-68.266667-68.266667h-13.653333V117.76c0-20.206933 16.384-36.5568 36.5568-36.5568h261.12v191.624533h-13.653334a68.266667 68.266667 0 0 0-68.266666 68.266667V930.133333a68.266667 68.266667 0 0 0 68.266666 68.266667h81.442134a68.266667 68.266667 0 0 0 68.266666-68.266667V341.0944a68.266667 68.266667 0 0 0-68.266666-68.266667h-13.653334V81.2032h261.12c20.206933 0 36.5568 16.384 36.5568 36.5568v155.067733h-13.653333a68.266667 68.266667 0 0 0-68.266667 68.266667V930.133333a68.266667 68.266667 0 0 0 68.266667 68.266667H904.533333a68.266667 68.266667 0 0 0 68.266667-68.266667V341.0944a68.266667 68.266667 0 0 0-68.266667-68.266667h-13.653333z" fill="#2e8749" p-id="20538"></path></svg>