<?xml version="1.0" standalone="no"?><!DOCTYPE svg PUBLIC "-//W3C//DTD SVG 1.1//EN" "http://www.w3.org/Graphics/SVG/1.1/DTD/svg11.dtd"><svg t="1726197100549" class="icon" viewBox="0 0 1024 1024" version="1.1" xmlns="http://www.w3.org/2000/svg" p-id="4269" xmlns:xlink="http://www.w3.org/1999/xlink" width="200" height="200"><path d="M911.506486 481.31131a37.561403 37.561403 0 1 0 70.195671 27.067246 88.944379 88.944379 0 0 0-20.924325-96.495053L554.449194 23.791662A89.648256 89.648256 0 0 0 432.614591 24.36756L26.285952 412.459402A90.416121 90.416121 0 0 0 6.449436 509.786309c14.333483 33.274156 46.263875 54.646403 81.329717 54.646403l2.879494 380.541167c0 48.823425 30.842583 79.026121 80.62584 79.026121h172.577691c72.819211 0 80.62584-52.406796 80.62584-74.93084v-278.863025l0.063989-3.327416a41.720673 41.720673 0 0 1 4.735168-0.255955h22.716011a37.561403 37.561403 0 0 0 0-75.186795h-22.716011c-49.335335 0-79.985952 30.202696-79.985952 78.706177l-0.447921 278.543081a102.446008 102.446008 0 0 1-4.991124 0.127978H171.284487c-5.758989 0-7.870618-0.895843-5.439045-3.839326V489.245916H87.715164a13.885561 13.885561 0 0 1-11.709944-7.934606 14.909382 14.909382 0 0 1 2.815506-15.101348l405.112852-386.876055a14.525449 14.525449 0 0 1 19.13264-0.639888L908.69098 466.145973a14.205505 14.205505 0 0 1 2.815506 15.165337z" fill="#177889" p-id="4270"></path><path d="M769.451434 512.025915c-139.943422 0-254.419318 114.539884-254.419318 255.955048s114.475895 255.955048 254.419318 255.955048C910.034744 1024 1023.870752 909.460116 1023.870752 768.044952c0-141.479153-113.836008-256.019037-254.419318-256.019037z m162.211512 282.894317c0 4.479213-3.839326 8.318539-8.254551 8.318539h-120.298872c-4.479213 0-8.25455 3.839326-8.254551 8.318539v32.634269c0 5.758989-6.334887 10.238202-12.093876 7.678651l-169.826174-76.146626c-6.334887-3.199438-6.334887-12.797752 0-15.357303l169.826174-76.786515c5.695-1.919663 12.093876 1.919663 12.093876 7.678652v33.274156c0 4.479213 3.839326 8.318539 8.254551 8.318539h120.234884c4.479213 0 8.25455 3.839326 8.25455 8.318539v53.75056z" fill="#177889" p-id="4271"></path></svg>