<svg width="26" height="27" xmlns="http://www.w3.org/2000/svg" xmlns:xlink="http://www.w3.org/1999/xlink" xml:space="preserve" overflow="hidden"><g transform="translate(-977 -170)"><path d="M7.8 3.25 11.96 3.25 18.2 13.0211 11.96 22.75 7.8 22.75 14.04 13.0569 7.8 3.25Z" fill="#FFFF00" transform="matrix(1 0 0 1.03846 977 170)"/><path d="M0 3.25 4.16 3.25 10.4 13.0211 4.16 22.75 0 22.75 6.24 13.0569 0 3.25Z" fill="#FFFF00" transform="matrix(1 0 0 1.03846 977 170)"/><path d="M15.6 3.25 19.76 3.25 26 13.0211 19.76 22.75 15.6 22.75 21.84 13.0569 15.6 3.25Z" fill="#FFFF00" transform="matrix(1 0 0 1.03846 977 170)"/></g></svg>