<?xml version="1.0" standalone="no"?><!DOCTYPE svg PUBLIC "-//W3C//DTD SVG 1.1//EN" "http://www.w3.org/Graphics/SVG/1.1/DTD/svg11.dtd"><svg t="1731141830681" class="icon" viewBox="0 0 1024 1024" version="1.1" xmlns="http://www.w3.org/2000/svg" p-id="6577" xmlns:xlink="http://www.w3.org/1999/xlink" width="200" height="200"><path d="M841.301333 417.834667a334.634667 334.634667 0 0 0-235.221333-94.976H237.653333l124.629334-121.6a42.24 42.24 0 0 0 0-60.672 44.714667 44.714667 0 0 0-62.208 0L98.176 337.621333a42.410667 42.410667 0 0 0 0 60.714667L294.4 589.653333c8.533333 8.362667 19.754667 12.544 31.104 12.544 11.306667 0 22.528-4.181333 31.104-12.544a42.24 42.24 0 0 0 0-60.672L233.045333 408.618667h373.034667a246.186667 246.186667 0 0 1 173.013333 69.888 234.154667 234.154667 0 0 1 71.68 168.746666v205.866667c0 23.68 19.626667 42.88 43.946667 42.88 24.277333 0 43.946667-19.2 43.946667-42.88V647.253333c0.128-86.613333-34.517333-168.106667-97.365334-229.418666z" fill="#ffff00" p-id="6578"></path></svg>