<?xml version="1.0" standalone="no"?><!DOCTYPE svg PUBLIC "-//W3C//DTD SVG 1.1//EN" "http://www.w3.org/Graphics/SVG/1.1/DTD/svg11.dtd"><svg t="1726044712112" class="icon" viewBox="0 0 1024 1024" version="1.1" xmlns="http://www.w3.org/2000/svg" p-id="4327" xmlns:xlink="http://www.w3.org/1999/xlink" width="200" height="200"><path d="M554.688 234.688a106.688 106.688 0 0 0-106.432 99.648v519.04A106.688 106.688 0 0 0 547.648 960H896a106.688 106.688 0 0 0 106.688-99.648v-519.04A106.688 106.688 0 0 0 903.04 234.88H896zM384 42.688a128 128 0 0 0-128 120.448V234.688H128A106.688 106.688 0 0 0 21.568 334.336v519.04A106.688 106.688 0 0 0 128 960h213.376a21.312 21.312 0 0 0 21.312-21.312V256a21.312 21.312 0 0 0-21.312-21.312v-64A42.688 42.688 0 0 1 379.072 128h260.992a42.368 42.368 0 0 1 30.016 12.352 43.136 43.136 0 0 1 4.928 5.824l2.048 3.2a42.688 42.688 0 1 0 73.92-42.624 128 128 0 0 0-101.696-64L640 42.432z m256 682.688h170.688a42.688 42.688 0 0 1 4.992 85.056H640a42.688 42.688 0 0 1 0-85.312z m0-170.688h170.688A42.752 42.752 0 0 1 815.68 640H640a42.688 42.688 0 0 1 0-85.312zM640 384h170.688a42.688 42.688 0 0 1 4.992 85.056H640A42.688 42.688 0 0 1 640 384z" fill="#18615b" p-id="4328"></path></svg>