<?xml version="1.0" standalone="no"?><!DOCTYPE svg PUBLIC "-//W3C//DTD SVG 1.1//EN" "http://www.w3.org/Graphics/SVG/1.1/DTD/svg11.dtd"><svg t="1726037009660" class="icon" viewBox="0 0 1024 1024" version="1.1" xmlns="http://www.w3.org/2000/svg" p-id="16318" xmlns:xlink="http://www.w3.org/1999/xlink" width="200" height="200"><path d="M0 0m512 0l0 0q512 0 512 512l0 0q0 512-512 512l0 0q-512 0-512-512l0 0q0-512 512-512Z" fill="#f7e686" p-id="16319"></path><path d="M552.789333 717.482667c12.458667 0 22.613333 9.984 22.613334 22.272v5.973333a22.4 22.4 0 0 1-22.613334 22.272h-81.066666a22.4 22.4 0 0 1-22.613334-22.229333v-6.016c0-12.288 10.112-22.272 22.613334-22.272h81.066666zM513.536 256a22.186667 22.186667 0 0 1 22.272 22.016v27.093333c89.045333 11.861333 157.653333 87.082667 157.653333 178.133334v143.274666h51.968c12.458667 0 22.570667 9.941333 22.570667 22.229334v5.973333a22.4 22.4 0 0 1-22.570667 22.272h-51.968v1.024H329.002667v-1.024H278.570667A22.4 22.4 0 0 1 256 654.762667v-5.973334c0-12.330667 10.112-22.272 22.570667-22.272H328.96v-143.274666c0-90.709333 68.096-165.717333 156.629333-177.962667v-27.306667A22.186667 22.186667 0 0 1 507.946667 256h5.546666z" fill="#707070" p-id="16320" data-spm-anchor-id="a313x.search_index.0.i8.51f43a81KJvTIa" class="selected"></path></svg>